{"accessors" : [{"bufferView" : 0, "byteOffset" : 0, "componentType" : 5123, "count" : 59298, "type" : "SCALAR", "max" : [49121], "min" : [0]}, {"bufferView" : 1, "byteOffset" : 0, "componentType" : 5126, "count" : 49122, "type" : "VEC3", "max" : [0.5016518235206604, 0.030053026974201202, 0.501299262046814], "min" : [-0.4420508146286011, -0.030051106587052345, -0.44238224625587463], "name" : "POSITION"}], "asset" : {"generator" : "Aspose.3D 23.6.0", "version" : "2.0"}, "buffers" : [{"uri" : "data:application/octet-stream;base64,", "byteLength" : 830180}], "bufferViews" : [{"buffer" : 0, "byteOffset" : 0, "byteLength" : 118596, "target" : 34963}, {"buffer" : 0, "byteOffset" : 118600, "byteLength" : 711576, "byteStride" : 12, "target" : 34962}], "meshes" : [{"primitives" : [{"attributes" : {"POSITION" : 1}, "indices" : 0, "mode" : 4}], "name" : "polyreduce1"}], "nodes" : [{"mesh" : 0, "name" : "polyreduce1"}], "scene" : 0, "scenes" : [{"nodes" : [0]}]}