<?xml version="1.0" standalone="no"?>
<!DOCTYPE svg PUBLIC "-//W3C//DTD SVG 20010904//EN"
 "http://www.w3.org/TR/2001/REC-SVG-20010904/DTD/svg10.dtd">
<svg version="1.0" xmlns="http://www.w3.org/2000/svg"
 width="535.000000pt" height="530.000000pt" viewBox="0 0 535.000000 530.000000"
 preserveAspectRatio="xMidYMid meet">

<g transform="translate(0.000000,530.000000) scale(0.100000,-0.100000)"
fill="#000000" stroke="none">
<path d="M2310 5284 c-741 -101 -1411 -516 -1829 -1134 -548 -808 -609 -1848
-160 -2710 121 -232 289 -460 474 -645 433 -435 993 -701 1605 -765 58 -6 649
-10 1503 -10 l1408 0 -4 1478 c-3 1445 -4 1479 -24 1587 -57 303 -128 516
-254 767 -391 780 -1149 1320 -2012 1433 -152 19 -558 19 -707 -1z m568 -1765
c318 -73 582 -338 652 -657 24 -105 26 -260 6 -364 -64 -329 -310 -598 -633
-690 -112 -32 -322 -31 -443 1 -333 89 -588 351 -654 673 -20 97 -21 265 -1
357 45 214 169 406 349 538 204 151 464 202 724 142z"/>
</g>
</svg>
